REM DIRINDEX 1\2,1\3,1\4,1\5
REM DIRNAME "folder01","folder02","folder03","folder04","folder05"
TITLE ""
FILE "P1Q_t_0278-0287.mp3" MP3
  TRACK 01 AUDIO
    TITLE "3:cjc173_1751"
    INDEX 01 00:00:00
  TRACK 02 AUDIO
    TITLE "0:"
    INDEX 01 00:01:22
  TRACK 03 AUDIO
    TITLE "4:cjc173_1752"
    INDEX 01 00:01:39
  TRACK 04 AUDIO
    TITLE "0:"
    INDEX 01 00:04:65
  TRACK 05 AUDIO
    TITLE "5:cjc173_1753"
    INDEX 01 00:05:11
  TRACK 06 AUDIO
    TITLE "0:"
    INDEX 01 00:10:09
  TRACK 07 AUDIO
    TITLE "3:cjc173_1754"
    INDEX 01 00:10:54
  TRACK 08 AUDIO
    TITLE "0:"
    INDEX 01 00:11:63
  TRACK 09 AUDIO
    TITLE "4:cjc173_1755"
    INDEX 01 00:12:12
  TRACK 10 AUDIO
    TITLE "0:"
    INDEX 01 00:14:73
  TRACK 11 AUDIO
    TITLE "5:cjc173_1756"
    INDEX 01 00:15:22
  TRACK 12 AUDIO
    TITLE "0:"
    INDEX 01 00:20:46
  TRACK 13 AUDIO
    TITLE "3:cjc173_1757"
    INDEX 01 00:21:18
  TRACK 14 AUDIO
    TITLE "0:"
    INDEX 01 00:22:33
  TRACK 15 AUDIO
    TITLE "4:cjc173_1758"
    INDEX 01 00:22:59
  TRACK 16 AUDIO
    TITLE "0:"
    INDEX 01 00:25:53
  TRACK 17 AUDIO
    TITLE "5:cjc173_1759"
    INDEX 01 00:25:73
  TRACK 18 AUDIO
    TITLE "0:"
    INDEX 01 00:31:42
  TRACK 19 AUDIO
    TITLE "3:cjc173_1760"
    INDEX 01 00:32:12
  TRACK 20 AUDIO
    TITLE "0:"
    INDEX 01 00:33:37
  TRACK 21 AUDIO
    TITLE "4:cjc173_1761"
    INDEX 01 00:33:59
  TRACK 22 AUDIO
    TITLE "0:"
    INDEX 01 00:36:26
  TRACK 23 AUDIO
    TITLE "5:cjc173_1762"
    INDEX 01 00:36:45
  TRACK 24 AUDIO
    TITLE "0:"
    INDEX 01 00:41:07
  TRACK 25 AUDIO
    TITLE "3:cjc173_1763"
    INDEX 01 00:41:54
  TRACK 26 AUDIO
    TITLE "0:"
    INDEX 01 00:42:69
  TRACK 27 AUDIO
    TITLE "4:cjc173_1764"
    INDEX 01 00:43:14
  TRACK 28 AUDIO
    TITLE "0:"
    INDEX 01 00:46:36
  TRACK 29 AUDIO
    TITLE "5:cjc173_1765"
    INDEX 01 00:46:55
  TRACK 30 AUDIO
    TITLE "0:"
    INDEX 01 00:52:74
  TRACK 31 AUDIO
    TITLE "3:cjc173_1766"
    INDEX 01 00:53:46
  TRACK 32 AUDIO
    TITLE "0:"
    INDEX 01 00:54:71
  TRACK 33 AUDIO
    TITLE "4:cjc173_1767"
    INDEX 01 00:55:19
  TRACK 34 AUDIO
    TITLE "0:"
    INDEX 01 00:56:54
  TRACK 35 AUDIO
    TITLE "5:cjc173_1768"
    INDEX 01 00:56:73
  TRACK 36 AUDIO
    TITLE "0:"
    INDEX 01 01:00:12
  TRACK 37 AUDIO
    TITLE "3:cjc173_1769"
    INDEX 01 01:00:60
  TRACK 38 AUDIO
    TITLE "0:"
    INDEX 01 01:01:67
  TRACK 39 AUDIO
    TITLE "4:cjc173_1770"
    INDEX 01 01:02:15
  TRACK 40 AUDIO
    TITLE "0:"
    INDEX 01 01:05:12
  TRACK 41 AUDIO
    TITLE "5:cjc173_1771"
    INDEX 01 01:05:31
  TRACK 42 AUDIO
    TITLE "0:"
    INDEX 01 01:10:19
  TRACK 43 AUDIO
    TITLE "3:cjc173_1772"
    INDEX 01 01:10:64
  TRACK 44 AUDIO
    TITLE "0:"
    INDEX 01 01:12:24
  TRACK 45 AUDIO
    TITLE "4:cjc173_1773"
    INDEX 01 01:12:43
  TRACK 46 AUDIO
    TITLE "0:"
    INDEX 01 01:14:05
  TRACK 47 AUDIO
    TITLE "5:cjc173_1774"
    INDEX 01 01:14:24
  TRACK 48 AUDIO
    TITLE "0:"
    INDEX 01 01:19:10
  TRACK 49 AUDIO
    TITLE "3:cjc173_1775"
    INDEX 01 01:19:57
  TRACK 50 AUDIO
    TITLE "0:"
    INDEX 01 01:21:13
  TRACK 51 AUDIO
    TITLE "4:cjc173_1776"
    INDEX 01 01:21:34
  TRACK 52 AUDIO
    TITLE "0:"
    INDEX 01 01:22:65
  TRACK 53 AUDIO
    TITLE "5:cjc173_1777"
    INDEX 01 01:23:12
  TRACK 54 AUDIO
    TITLE "0:"
    INDEX 01 01:26:67
  TRACK 55 AUDIO
    TITLE "3:cjc173_1778"
    INDEX 01 01:27:39
  TRACK 56 AUDIO
    TITLE "0:"
    INDEX 01 01:28:68
  TRACK 57 AUDIO
    TITLE "4:cjc173_1779"
    INDEX 01 01:29:14
  TRACK 58 AUDIO
    TITLE "0:"
    INDEX 01 01:30:35
  TRACK 59 AUDIO
    TITLE "5:cjc173_1780"
    INDEX 01 01:30:55
  TRACK 60 AUDIO
    TITLE "0:"
    INDEX 01 01:35:17
